<svg xmlns="http://www.w3.org/2000/svg" width="36" height="36" viewBox="0 0 36 36">
  <defs>
    <style>
      .cls-1 {
        fill-rule: evenodd;
      }
    </style>
  </defs>
  <path class="cls-1" d="M847.728,753.272a17.995,17.995,0,1,0-5.721,29.313l-0.868-2.051A15.776,15.776,0,1,1,850.773,766c0,3.809-2.341,5.545-4.515,5.545s-4.516-1.736-4.516-5.545a6.75,6.75,0,1,0-1.352,4.045,6.981,6.981,0,0,0,1.191,1.716,6.445,6.445,0,0,0,9.353,0A8.153,8.153,0,0,0,853,766,17.882,17.882,0,0,0,847.728,753.272ZM835,770.515A4.516,4.516,0,1,1,839.515,766,4.52,4.52,0,0,1,835,770.515Z" transform="translate(-817 -748)"/>
</svg>
