<svg xmlns="http://www.w3.org/2000/svg" width="26" height="36" viewBox="0 0 26 36">
  <defs>
    <style>
      .cls-1 {
        fill-rule: evenodd;
      }
    </style>
  </defs>
  <path id="Icon" class="cls-1" d="M1215,753.459a7.849,7.849,0,1,0,7.67,7.847A7.768,7.768,0,0,0,1215,753.459Zm0,13.583a5.738,5.738,0,1,1,5.6-5.736A5.674,5.674,0,0,1,1215,767.042ZM1215,748a13.169,13.169,0,0,0-13,13.306c0,4.231,3.47,10.535,5.53,13.916a59.4,59.4,0,0,0,4.12,5.961c2.07,2.6,2.82,2.817,3.35,2.817s1.24-.218,3.31-2.819a61.826,61.826,0,0,0,4.12-5.957c2.08-3.39,5.57-9.705,5.57-13.918A13.169,13.169,0,0,0,1215,748Zm6,25.58a42.929,42.929,0,0,1-6.01,8.188,40.247,40.247,0,0,1-6.02-8.174c-3.12-5.208-4.91-9.687-4.91-12.288a10.943,10.943,0,1,1,21.88,0C1225.94,763.892,1224.14,768.366,1221,773.58Z" transform="translate(-1202 -748)"/>
</svg>
