<svg xmlns="http://www.w3.org/2000/svg" width="35.375" height="35.375" viewBox="0 0 35.375 35.375">
  <defs>
    <style>
      .cls-1 {
        fill-rule: evenodd;
      }
    </style>
  </defs>
  <path id="Icon" class="cls-1" d="M464.287,770.227a3.488,3.488,0,0,0-2.528-1.158,3.6,3.6,0,0,0-2.557,1.15l-2.364,2.353c-0.194-.1-0.389-0.2-0.576-0.3-0.269-.134-0.523-0.261-0.74-0.4a25.646,25.646,0,0,1-6.156-5.6,15.116,15.116,0,0,1-2.019-3.181c0.613-.56,1.182-1.143,1.735-1.7,0.209-.209.419-0.425,0.628-0.634a3.423,3.423,0,0,0,0-5.168l-2.042-2.039c-0.231-.232-0.471-0.471-0.695-0.71-0.449-.463-0.92-0.941-1.406-1.389a3.544,3.544,0,0,0-2.506-1.1,3.667,3.667,0,0,0-2.543,1.1,0.106,0.106,0,0,1-.015.015l-2.542,2.562a5.454,5.454,0,0,0-1.623,3.472,13.066,13.066,0,0,0,.957,5.542,32.159,32.159,0,0,0,5.722,9.529,35.175,35.175,0,0,0,11.719,9.163,18.264,18.264,0,0,0,6.582,1.942c0.157,0.008.322,0.015,0.471,0.015a5.641,5.641,0,0,0,4.316-1.852c0.007-.015.022-0.022,0.03-0.037a16.845,16.845,0,0,1,1.308-1.352c0.322-.306.651-0.627,0.973-0.963a3.727,3.727,0,0,0,1.129-2.584,3.586,3.586,0,0,0-1.152-2.562Zm2.678,7.864c-0.008,0-.008.007,0,0-0.292.314-.591,0.6-0.913,0.911a19.765,19.765,0,0,0-1.443,1.494,3.61,3.61,0,0,1-2.812,1.187c-0.112,0-.232,0-0.344-0.007a16.244,16.244,0,0,1-5.834-1.748A33.2,33.2,0,0,1,444.58,771.3a30.283,30.283,0,0,1-5.385-8.954,10.649,10.649,0,0,1-.838-4.675,3.426,3.426,0,0,1,1.032-2.218l2.55-2.547a1.7,1.7,0,0,1,1.137-.53,1.6,1.6,0,0,1,1.092.522l0.023,0.023c0.456,0.426.89,0.866,1.346,1.337,0.232,0.239.471,0.478,0.71,0.724l2.042,2.039a1.424,1.424,0,0,1,0,2.315c-0.217.217-.426,0.433-0.643,0.642-0.628.643-1.227,1.24-1.877,1.823a0.192,0.192,0,0,0-.038.037,1.52,1.52,0,0,0-.388,1.7c0.007,0.023.014,0.045,0.022,0.067a16.345,16.345,0,0,0,2.416,3.936l0.007,0.008a27.432,27.432,0,0,0,6.642,6.034,10.1,10.1,0,0,0,.92.5c0.269,0.134.523,0.262,0.74,0.4,0.03,0.015.06,0.037,0.09,0.052a1.623,1.623,0,0,0,.74.187,1.6,1.6,0,0,0,1.137-.515l2.558-2.555a1.7,1.7,0,0,1,1.129-.56,1.522,1.522,0,0,1,1.077.546l0.015,0.014,4.121,4.115A1.475,1.475,0,0,1,466.965,778.091Zm-11.533-21.366a9.615,9.615,0,0,1,7.838,7.826,1,1,0,0,0,1,.837,1.426,1.426,0,0,0,.172-0.015,1.01,1.01,0,0,0,.83-1.165,11.63,11.63,0,0,0-9.483-9.47,1.015,1.015,0,0,0-1.167.822A1,1,0,0,0,455.432,756.725Zm16.245,7.191a19.153,19.153,0,0,0-15.617-15.593,1.007,1.007,0,1,0-.329,1.986,17.107,17.107,0,0,1,13.956,13.936,1,1,0,0,0,1,.837,1.426,1.426,0,0,0,.172-0.015A0.991,0.991,0,0,0,471.677,763.916Z" transform="translate(-436.313 -748.313)"/>
</svg>
