<svg xmlns="http://www.w3.org/2000/svg" width="70.187" height="72" viewBox="0 0 70.187 72">
  <defs>
    <style>
      .cls-1 {
        fill: #241801;
        fill-rule: evenodd;
      }
    </style>
  </defs>
  <path id="icon" class="cls-1" d="M702.136,1044.85l-18.071,17.42a1.18,1.18,0,0,0,.868,2.02h17.7a1.57,1.57,0,0,0,1.6-1.54v-17.06A1.237,1.237,0,0,0,702.136,1044.85Zm-0.094,17.33H687.255l14.787-14.25v14.25Zm7.973-33.06a1.414,1.414,0,0,0-1.517.29h0l-17.775,17.13v-7.82c2.4-2.31,14.888-14.35,17.574-16.93a4.065,4.065,0,0,0,0-5.89l-2.148-2.07a4.442,4.442,0,0,0-6.105,0c-1.037,1-8.272,7.97-9.321,8.99v-12.74a3.141,3.141,0,0,0-3.194-3.08H672.174a1.056,1.056,0,1,0,0,2.11h15.355a0.986,0.986,0,0,1,1,.97v14.84l-30.061,28.98a1.076,1.076,0,0,0-.229.32c-0.4.89-3.819,8.41-4.213,9.28a1.989,1.989,0,0,0,2.735,2.63l9.625-4.06a1.045,1.045,0,0,0,.335-0.22l21.808-21.02v7.82l-20.5,19.75a1.336,1.336,0,0,0,.984,2.29h19.512v5.13a1.089,1.089,0,0,1-1.105,1.07H643.908a1.027,1.027,0,0,1-1.046-1.01v-50.87h13.311a3.138,3.138,0,0,0,3.193-3.07v-12.83h7.7a1.056,1.056,0,1,0,0-2.11h-8.795a1.1,1.1,0,0,0-.774.31l-16.5,15.9a1.06,1.06,0,0,0-.321.75v51.92a3.183,3.183,0,0,0,3.235,3.12h43.521a3.245,3.245,0,0,0,3.294-3.18v-5.13h17.931a2.183,2.183,0,0,0,2.219-2.14v-38.19A1.322,1.322,0,0,0,710.015,1029.12Zm-52.837-18.52v11.34a0.992,0.992,0,0,1-1,.97H644.41Zm44.413,4.72a2.189,2.189,0,0,1,3.011,0l2.148,2.07a2,2,0,0,1,0,2.9l-1.715,1.66-5.158-4.98Zm-3.262,3.15,5.158,4.97-2.559,2.46c-0.722-.69-4.536-4.37-5.158-4.97Zm-42.178,45.62,1.541-3.39,1.98,1.91Zm5.674-2.39-3.19-3.08,0.971-2.14,4.439,4.28Zm4.127-2.08-1.8-1.74,15.695-15.13a1.027,1.027,0,0,0,0-1.49,1.118,1.118,0,0,0-1.548,0L662.6,1056.38c-0.738-.71-0.539-0.52-1.805-1.74l33.428-32.22,1.805,1.74-14.113,13.61a1.025,1.025,0,0,0,0,1.49,1.127,1.127,0,0,0,1.547,0l14.114-13.6,1.806,1.74C697.874,1028.85,694.679,1031.93,665.952,1059.62Zm42.733-19.02h-1.1a1.056,1.056,0,1,0,0,2.11h1.1v5.18h-1.1a1.056,1.056,0,1,0,0,2.11h1.1v5.17h-1.1a1.056,1.056,0,1,0,0,2.11h1.1v5.18h-1.1a1.056,1.056,0,1,0,0,2.11h1.1v3.98a0.028,0.028,0,0,1-.03.03H670.946c0.982-.94,36.639-35.31,37.739-36.37v8.39Z" transform="translate(-640.688 -1007)"/>
</svg>
