<svg xmlns="http://www.w3.org/2000/svg" width="71.59" height="70" viewBox="0 0 71.59 70">
  <defs>
    <style>
      .cls-1 {
        fill: #241801;
        fill-rule: evenodd;
      }
    </style>
  </defs>
  <path id="Icon" class="cls-1" d="M1086.4,1061.66h-2.39v-21a2.356,2.356,0,0,0-2.38-2.33h-21.49a2.365,2.365,0,0,0-2.39,2.33v21h-7.16v-21a2.365,2.365,0,0,0-2.39-2.33h-21.48a2.365,2.365,0,0,0-2.39,2.33v21h-2.39a3.547,3.547,0,0,0-3.58,3.5v4.67a3.547,3.547,0,0,0,3.58,3.5v3.5a1.185,1.185,0,0,0,1.2,1.17h9.55a1.176,1.176,0,0,0,1.19-1.17v-3.5h14.32v3.5a1.185,1.185,0,0,0,1.2,1.17h9.55a1.176,1.176,0,0,0,1.19-1.17v-3.5h14.33v3.5a1.176,1.176,0,0,0,1.19,1.17h9.55a1.176,1.176,0,0,0,1.19-1.17v-3.5a3.541,3.541,0,0,0,3.58-3.5v-4.67A3.541,3.541,0,0,0,1086.4,1061.66Zm-16.71-21h2.39v3.5h-2.39v-3.5Zm-9.55,0h7.16v4.67a1.191,1.191,0,0,0,1.2,1.17h4.77a1.191,1.191,0,0,0,1.2-1.17v-4.67h7.16v21h-21.49v-21h0Zm-23.87,0h2.39v3.5h-2.39v-3.5Zm-9.55,0h7.16v4.67a1.189,1.189,0,0,0,1.19,1.17h4.78a1.182,1.182,0,0,0,1.19-1.17v-4.67h7.16v21h-21.48v-21Zm4.77,35h-7.16v-2.33h7.16v2.33Zm26.26,0h-7.16v-2.33h7.16v2.33Zm26.26,0h-7.16v-2.33h7.16v2.33Zm3.59-5.83a1.185,1.185,0,0,1-1.2,1.17h-64.46a1.182,1.182,0,0,1-1.19-1.17v-4.67a1.18,1.18,0,0,1,1.19-1.16h64.46a1.183,1.183,0,0,1,1.2,1.16v4.67h0Zm-60.39-2.33,0.35-.34a1.147,1.147,0,0,0-.01-1.64,1.2,1.2,0,0,0-1.67-.01l-0.35.34-0.35-.34a1.214,1.214,0,0,0-1.68.01,1.156,1.156,0,0,0-.01,1.64l0.35,0.34-0.35.34a1.142,1.142,0,0,0,0,1.65,1.227,1.227,0,0,0,1.69,0l0.35-.34,0.35,0.34a1.234,1.234,0,0,0,1.16.32,1.2,1.2,0,0,0,.85-0.84,1.146,1.146,0,0,0-.33-1.13Zm28.99-1.98a1.214,1.214,0,0,0-1.68-.01l-0.35.34-0.35-.34a1.2,1.2,0,0,0-1.67.01,1.147,1.147,0,0,0-.01,1.64l0.35,0.34-0.35.34a1.142,1.142,0,0,0,0,1.65,1.214,1.214,0,0,0,1.68,0l0.35-.34,0.35,0.34a1.214,1.214,0,0,0,1.68-.02,1.144,1.144,0,0,0,.01-1.63l-0.35-.34,0.35-.34A1.156,1.156,0,0,0,1056.2,1065.52Zm28.64,0a1.2,1.2,0,0,0-1.67-.01l-0.35.34-0.35-.34a1.2,1.2,0,0,0-1.67.01,1.156,1.156,0,0,0-.02,1.64l0.35,0.34-0.35.34a1.159,1.159,0,0,0,0,1.65,1.227,1.227,0,0,0,1.69,0l0.35-.34,0.35,0.34a1.2,1.2,0,0,0,1.67-.02,1.144,1.144,0,0,0,.02-1.63l-0.35-.34,0.35-.34A1.156,1.156,0,0,0,1084.84,1065.52Zm-52.15.81h-1.2a1.165,1.165,0,1,0,0,2.33h1.2A1.165,1.165,0,1,0,1032.69,1066.33Zm15.51,0h-10.74a1.165,1.165,0,1,0,0,2.33h10.74A1.166,1.166,0,1,0,1048.2,1066.33Zm13.14,0h-1.2a1.165,1.165,0,1,0,0,2.33h1.2A1.165,1.165,0,1,0,1061.34,1066.33Zm15.51,0h-10.74a1.165,1.165,0,1,0,0,2.33h10.74A1.166,1.166,0,1,0,1076.85,1066.33Zm-57.29-56h9.55a1.165,1.165,0,1,0,0-2.33h-9.55A1.166,1.166,0,1,0,1019.56,1010.33Zm13.97,37.68a1.207,1.207,0,0,0-1.69,0l-2.38,2.33a1.147,1.147,0,0,0,.01,1.64,1.211,1.211,0,0,0,1.67.01l1.55-1.51,1.54,1.51a1.211,1.211,0,0,0,1.67-.01,1.156,1.156,0,0,0,.02-1.64Zm-0.84,5.49a1.183,1.183,0,0,0-1.2,1.16v3.5a1.2,1.2,0,0,0,2.39,0v-3.5A1.174,1.174,0,0,0,1032.69,1053.5Zm10.39-5.49a1.207,1.207,0,0,0-1.69,0l-2.38,2.33a1.147,1.147,0,0,0,.01,1.64,1.211,1.211,0,0,0,1.67.01l1.55-1.51,1.54,1.51a1.211,1.211,0,0,0,1.67-.01,1.156,1.156,0,0,0,.02-1.64Zm-0.84,5.49a1.183,1.183,0,0,0-1.2,1.16v3.5a1.2,1.2,0,0,0,2.39,0v-3.5A1.174,1.174,0,0,0,1042.24,1053.5Zm24.71-5.49a1.2,1.2,0,0,0-1.68,0l-2.39,2.33a1.156,1.156,0,0,0,.01,1.64,1.224,1.224,0,0,0,1.68.01l1.54-1.51,1.54,1.51a1.224,1.224,0,0,0,1.68-.01,1.156,1.156,0,0,0,.01-1.64Zm-0.84,5.49a1.174,1.174,0,0,0-1.19,1.16v3.5a1.19,1.19,0,0,0,2.38,0v-3.5A1.174,1.174,0,0,0,1066.11,1053.5Zm10.39-5.49a1.207,1.207,0,0,0-1.69,0l-2.38,2.33a1.156,1.156,0,0,0,.01,1.64,1.224,1.224,0,0,0,1.68.01l1.54-1.51,1.54,1.51a1.224,1.224,0,0,0,1.68-.01,1.156,1.156,0,0,0,.01-1.64Zm-0.84,5.49a1.174,1.174,0,0,0-1.19,1.16v3.5a1.19,1.19,0,0,0,2.38,0v-3.5A1.174,1.174,0,0,0,1075.66,1053.5Zm-41.78-43.17h31.04v2.34h-31.04a5.832,5.832,0,1,0,0,11.66h2.39V1029a1.2,1.2,0,0,0,2.39,0v-4.67h27.45a5.975,5.975,0,0,0,1.46-.2,8.367,8.367,0,0,0,8.06,6.03h1.2a8.255,8.255,0,0,0,8.35-8.16v-7a3.541,3.541,0,0,0,3.58-3.5v-1.17h0.03a1.165,1.165,0,1,0,0-2.33h-54.91A1.165,1.165,0,1,0,1033.88,1010.33Zm47.72,0h4.78v1.17a1.183,1.183,0,0,1-1.2,1.16h-2.38a1.183,1.183,0,0,1-1.2-1.16v-1.17h0Zm-4.75,5.83v-5.83h2.37v1.17a3.541,3.541,0,0,0,3.58,3.5v7a5.912,5.912,0,0,1-5.97,5.83h-1.2a5.916,5.916,0,0,1-5.83-4.78,5.837,5.837,0,0,0,2.16-3.39h1.31A3.534,3.534,0,0,0,1076.85,1016.16Zm-9.55-5.83h7.17v5.83a1.185,1.185,0,0,1-1.2,1.17h-1.31a5.909,5.909,0,0,0-4.66-4.55v-2.45h0Zm2.39,8.17a3.541,3.541,0,0,1-3.58,3.5h-32.23a3.5,3.5,0,1,1,0-7h32.23A3.534,3.534,0,0,1,1069.69,1018.5Zm-36.13-2.31a1.189,1.189,0,0,0-.85.83,1.163,1.163,0,0,0,.33,1.14l0.35,0.34-0.35.34a1.146,1.146,0,0,0-.33,1.13,1.2,1.2,0,0,0,.85.84,1.253,1.253,0,0,0,1.17-.32l0.35-.34,0.34,0.34a1.224,1.224,0,0,0,1.68-.02,1.144,1.144,0,0,0,.01-1.63l-0.35-.34,0.35-.34a1.156,1.156,0,0,0-.52-1.97,1.2,1.2,0,0,0-1.17.32l-0.34.34-0.35-.34A1.2,1.2,0,0,0,1033.56,1016.19Zm29.67,2.31-0.35.34a1.142,1.142,0,0,0,0,1.65,1.227,1.227,0,0,0,1.69,0l0.35-.34,0.35,0.34a1.212,1.212,0,0,0,1.67-.02,1.135,1.135,0,0,0,.01-1.63l-0.35-.34,0.35-.34a1.156,1.156,0,0,0-.52-1.97,1.187,1.187,0,0,0-1.16.32l-0.35.34-0.35-.34a1.21,1.21,0,0,0-2.02.51,1.163,1.163,0,0,0,.33,1.14Zm-23.38,1.16h3.58a1.165,1.165,0,1,0,0-2.33h-3.58A1.165,1.165,0,1,0,1039.85,1019.66Zm8.35,0h10.75a1.165,1.165,0,1,0,0-2.33H1048.2A1.165,1.165,0,1,0,1048.2,1019.66Zm-15.71,8.19-7.16,1.16a1.194,1.194,0,0,0-.96.87l-1.19,4.67a1.16,1.16,0,0,0,.87,1.41,0.9,0.9,0,0,0,.28.04,1.192,1.192,0,0,0,1.16-.89l1-3.92,6.39-1.04a1.214,1.214,0,0,0,.95-0.74,1.16,1.16,0,0,0-.2-1.17A1.213,1.213,0,0,0,1032.49,1027.85Zm17.11,1.16-7.17-1.16a1.221,1.221,0,0,0-1.14.39,1.183,1.183,0,0,0-.2,1.17,1.2,1.2,0,0,0,.95.74l6.39,1.04,1,3.92a1.2,1.2,0,0,0,1.16.89,0.925,0.925,0,0,0,.29-0.04,1.16,1.16,0,0,0,.87-1.41l-1.19-4.67A1.208,1.208,0,0,0,1049.6,1029.01Z" transform="translate(-1018.38 -1008)"/>
</svg>
