<svg xmlns="http://www.w3.org/2000/svg" width="73" height="70" viewBox="0 0 73 70">
  <defs>
    <style>
      .cls-1 {
        fill: #241801;
        fill-rule: evenodd;
      }
    </style>
  </defs>
  <path id="Icon" class="cls-1" d="M1471.93,1075.85h-1.22v-38.04a1.065,1.065,0,1,0-2.13,0v38.04h-21.87v-3.53a1.08,1.08,0,0,0-1.07-1.08h-2.36v-15.03a1.065,1.065,0,0,0-1.07-1.07h-11.42a1.065,1.065,0,0,0-1.07,1.07v15.03h-2.36a1.08,1.08,0,0,0-1.07,1.08v3.53h-21.87v-1.23a1.065,1.065,0,1,0-2.13,0v1.23h-1.22a1.075,1.075,0,0,0,0,2.15h70.86A1.075,1.075,0,0,0,1471.93,1075.85Zm-40.08-18.56h9.3v13.95h-9.3v-13.95Zm12.72,18.56h-16.14v-2.45h16.14v2.45Zm-18.36-9.21h-0.07v-10.43a1.071,1.071,0,0,0-1.07-1.07h-16a1.071,1.071,0,0,0-1.07,1.07v10.43h-0.07a1.075,1.075,0,0,0,0,2.15h18.28A1.075,1.075,0,0,0,1426.21,1066.64Zm-10.21,0h-5.86v-9.35H1416v9.35Zm8,0h-5.86v-9.35H1424v9.35Zm41.07,0H1465v-10.43a1.071,1.071,0,0,0-1.07-1.07h-16a1.071,1.071,0,0,0-1.07,1.07v10.43h-0.07a1.075,1.075,0,0,0,0,2.15h18.28A1.075,1.075,0,0,0,1465.07,1066.64Zm-10.21,0H1449v-9.35h5.86v9.35Zm8,0H1457v-9.35h5.86v9.35Zm-25.22-6.9h-2.28a1.075,1.075,0,0,0,0,2.15h2.28A1.075,1.075,0,0,0,1437.64,1059.74Zm4.57-23.01h-11.42a1.067,1.067,0,0,0-1.07,1.08v11.5a1.067,1.067,0,0,0,1.07,1.08h11.42a1.067,1.067,0,0,0,1.07-1.08v-11.5A1.067,1.067,0,0,0,1442.21,1036.73Zm-6.78,11.51h-3.58v-9.36h3.58v9.36Zm5.72,0h-3.58v-9.36h3.58v9.36Zm1.06-29.91h-11.42a1.065,1.065,0,0,0-1.07,1.07v11.51a1.065,1.065,0,0,0,1.07,1.07h11.42a1.065,1.065,0,0,0,1.07-1.07V1019.4A1.065,1.065,0,0,0,1442.21,1018.33Zm-6.78,11.5h-3.58v-9.35h3.58v9.35Zm5.72,0h-3.58v-9.35h3.58v9.35Zm22.78,6.9h-16a1.073,1.073,0,0,0-1.07,1.08v11.5a1.073,1.073,0,0,0,1.07,1.08h16a1.073,1.073,0,0,0,1.07-1.08v-11.5A1.073,1.073,0,0,0,1463.93,1036.73Zm-9.07,11.51H1449v-9.36h5.86v9.36Zm8,0H1457v-9.36h5.86v9.36Zm-37.79-11.51h-16a1.073,1.073,0,0,0-1.07,1.08v11.5a1.073,1.073,0,0,0,1.07,1.08h16a1.073,1.073,0,0,0,1.07-1.08v-11.5A1.073,1.073,0,0,0,1425.07,1036.73Zm-9.07,11.51h-5.86v-9.36H1416v9.36Zm8,0h-5.86v-9.36H1424v9.36Zm48.72-18.06-12.29-13.5v-4.25h0.07a1.08,1.08,0,0,0,0-2.16h-6.86a1.08,1.08,0,0,0,0,2.16h0.08v3.59H1449v-1.22a1.071,1.071,0,0,0-.59-0.96l-11.43-5.75a1.02,1.02,0,0,0-.96,0l-11.43,5.75a1.071,1.071,0,0,0-.59.96v1.22h-4.72v-3.59h0.08a1.08,1.08,0,0,0,0-2.16h-6.86a1.08,1.08,0,0,0,0,2.16h0.07v4.25l-12.29,13.5a1.075,1.075,0,0,0,.79,1.8h1.22v38.04a1.065,1.065,0,1,0,2.13,0v-38.04h20.65a1.071,1.071,0,0,0,1.07-1.07v-15.44l10.36-5.22,10.36,5.22v15.44a1.071,1.071,0,0,0,1.07,1.07h20.65v1.23a1.065,1.065,0,1,0,2.13,0v-1.23h1.22A1.075,1.075,0,0,0,1472.72,1030.18Zm-58.01-17.75h2.43v3.59h-2.43v-3.59Zm9.29,17.4h-20.5l10.61-11.65H1424v11.65Zm31.86-17.4h2.43v3.59h-2.43v-3.59Zm-6.86,17.4v-11.65h9.89l10.61,11.65H1449Z" transform="translate(-1400 -1008)"/>
</svg>
