<?xml version="1.0" encoding="UTF-8"?>
<svg xmlns="http://www.w3.org/2000/svg" xmlns:xlink="http://www.w3.org/1999/xlink" width="70px" height="70px" viewBox="0 0 70 70" version="1.1">
<g id="surface1">
<path style="fill:none;stroke-width:2;stroke-linecap:butt;stroke-linejoin:round;stroke:rgb(0%,0%,0%);stroke-opacity:1;stroke-miterlimit:4;" d="M 62 51.839286 L 62 54.839286 C 62 57.139286 48.571429 61 32 61 C 15.428571 61 2 57.139286 2 54.889286 L 2 51.889286 C 2 45.239286 7.060714 39.1 15 35.621429 C 15.628571 38.975 15.964286 42.378571 16 45.789286 C 16 46.892857 16.896429 47.789286 18 47.789286 C 19.103571 47.789286 20 46.892857 20 45.789286 C 20.010714 42.035714 19.675 38.292857 19 34.6 C 22.257143 33.667857 25.614286 33.128571 29 33 C 30.378571 37.8 31.05 42.775 31 47.771429 C 31 48.875 31.896429 49.771429 33 49.771429 C 34.103571 49.771429 35 48.875 35 47.771429 C 35.014286 42.778571 34.342857 37.807143 33 33 C 36.8 33.089286 40.510714 33.15 43.821429 34.071429 C 44.617857 37.907143 45.014286 41.817857 45 45.739286 C 45 46.842857 45.896429 47.739286 47 47.739286 C 48.103571 47.739286 49 46.842857 49 45.739286 C 48.953571 42.328571 48.621429 38.925 48 35.571429 C 56.310714 39 62 45 62 51.839286 Z M 62 51.839286 " transform="matrix(1.09375,0,0,1.09375,0,0)"/>
<path style="fill:none;stroke-width:2;stroke-linecap:round;stroke-linejoin:round;stroke:rgb(0%,0%,0%);stroke-opacity:1;stroke-miterlimit:4;" d="M 34 7.089286 C 34 12.171429 30 12.171429 30 17.260714 C 30 22.35 34 22.339286 34 27.428571 " transform="matrix(1.09375,0,0,1.09375,0,0)"/>
<path style="fill:none;stroke-width:2;stroke-linecap:round;stroke-linejoin:round;stroke:rgb(0%,0%,0%);stroke-opacity:1;stroke-miterlimit:4;" d="M 13 15.221429 C 13 15.721429 9 19.539286 9 23.360714 C 9 27.439286 13 27.428571 13 31.5 " transform="matrix(1.09375,0,0,1.09375,0,0)"/>
<path style="fill:none;stroke-width:2;stroke-linecap:round;stroke-linejoin:round;stroke:rgb(0%,0%,0%);stroke-opacity:1;stroke-miterlimit:4;" d="M 52 14.210714 C 52 14.7 48 18.528571 48 22.339286 C 48 26.421429 52 26.410714 52 30.478571 " transform="matrix(1.09375,0,0,1.09375,0,0)"/>
<path style="fill:none;stroke-width:2;stroke-linecap:round;stroke-linejoin:round;stroke:rgb(0%,0%,0%);stroke-opacity:1;stroke-miterlimit:4;" d="M 19 17.260714 L 20 18.278571 " transform="matrix(1.09375,0,0,1.09375,0,0)"/>
<path style="fill:none;stroke-width:2;stroke-linecap:round;stroke-linejoin:round;stroke:rgb(0%,0%,0%);stroke-opacity:1;stroke-miterlimit:4;" d="M 23 18.278571 L 24 17.260714 " transform="matrix(1.09375,0,0,1.09375,0,0)"/>
<path style="fill:none;stroke-width:2;stroke-linecap:round;stroke-linejoin:round;stroke:rgb(0%,0%,0%);stroke-opacity:1;stroke-miterlimit:4;" d="M 20 21.328571 L 19 22.339286 " transform="matrix(1.09375,0,0,1.09375,0,0)"/>
<path style="fill:none;stroke-width:2;stroke-linecap:round;stroke-linejoin:round;stroke:rgb(0%,0%,0%);stroke-opacity:1;stroke-miterlimit:4;" d="M 23 21.328571 L 24 22.339286 " transform="matrix(1.09375,0,0,1.09375,0,0)"/>
<path style="fill:none;stroke-width:2;stroke-linecap:round;stroke-linejoin:round;stroke:rgb(0%,0%,0%);stroke-opacity:1;stroke-miterlimit:4;" d="M 43 2 L 44 3.021429 " transform="matrix(1.09375,0,0,1.09375,0,0)"/>
<path style="fill:none;stroke-width:2;stroke-linecap:round;stroke-linejoin:round;stroke:rgb(0%,0%,0%);stroke-opacity:1;stroke-miterlimit:4;" d="M 47 3.021429 L 48 2 " transform="matrix(1.09375,0,0,1.09375,0,0)"/>
<path style="fill:none;stroke-width:2;stroke-linecap:round;stroke-linejoin:round;stroke:rgb(0%,0%,0%);stroke-opacity:1;stroke-miterlimit:4;" d="M 44 6.071429 L 43 7.089286 " transform="matrix(1.09375,0,0,1.09375,0,0)"/>
<path style="fill:none;stroke-width:2;stroke-linecap:round;stroke-linejoin:round;stroke:rgb(0%,0%,0%);stroke-opacity:1;stroke-miterlimit:4;" d="M 47 6.071429 L 48 7.089286 " transform="matrix(1.09375,0,0,1.09375,0,0)"/>
<path style="fill:none;stroke-width:2;stroke-linecap:round;stroke-linejoin:round;stroke:rgb(0%,0%,0%);stroke-opacity:1;stroke-miterlimit:4;" d="M 57 22.339286 L 58 23.360714 " transform="matrix(1.09375,0,0,1.09375,0,0)"/>
<path style="fill:none;stroke-width:2;stroke-linecap:round;stroke-linejoin:round;stroke:rgb(0%,0%,0%);stroke-opacity:1;stroke-miterlimit:4;" d="M 61 23.360714 L 62 22.339286 " transform="matrix(1.09375,0,0,1.09375,0,0)"/>
<path style="fill:none;stroke-width:2;stroke-linecap:round;stroke-linejoin:round;stroke:rgb(0%,0%,0%);stroke-opacity:1;stroke-miterlimit:4;" d="M 58 26.410714 L 57 27.428571 " transform="matrix(1.09375,0,0,1.09375,0,0)"/>
<path style="fill:none;stroke-width:2;stroke-linecap:round;stroke-linejoin:round;stroke:rgb(0%,0%,0%);stroke-opacity:1;stroke-miterlimit:4;" d="M 61 26.410714 L 62 27.428571 " transform="matrix(1.09375,0,0,1.09375,0,0)"/>
</g>
</svg>
