<?xml version="1.0" encoding="UTF-8"?>
<svg xmlns="http://www.w3.org/2000/svg" xmlns:xlink="http://www.w3.org/1999/xlink" width="70px" height="70px" viewBox="0 0 70 70" version="1.1">
<g id="surface1">
<path style=" stroke:none;fill-rule:nonzero;fill:rgb(0%,0%,0%);fill-opacity:1;" d="M 37.1875 13.34375 C 39.808594 13.878906 42.144531 15.359375 43.75 17.5 C 46.742188 13.511719 52.054688 12.050781 56.667969 13.953125 C 61.277344 15.851562 64.019531 20.632812 63.332031 25.570312 C 62.644531 30.511719 58.703125 34.359375 53.746094 34.929688 C 55.164062 38.113281 54.976562 41.777344 53.25 44.800781 C 51.523438 47.828125 48.457031 49.847656 44.996094 50.242188 C 47.03125 54.828125 45.6875 60.214844 41.730469 63.300781 C 37.773438 66.390625 32.226562 66.390625 28.269531 63.300781 C 24.3125 60.214844 22.96875 54.828125 25.003906 50.242188 C 21.542969 49.847656 18.476562 47.828125 16.75 44.800781 C 15.023438 41.777344 14.835938 38.113281 16.253906 34.929688 C 11.296875 34.359375 7.355469 30.511719 6.667969 25.570312 C 5.980469 20.632812 8.722656 15.851562 13.332031 13.953125 C 17.945312 12.050781 23.257812 13.511719 26.25 17.5 C 27.855469 15.359375 30.191406 13.878906 32.8125 13.34375 L 32.8125 8.75 L 28.4375 8.75 C 27.230469 8.75 26.25 7.769531 26.25 6.5625 C 26.25 5.355469 27.230469 4.375 28.4375 4.375 L 41.5625 4.375 C 42.769531 4.375 43.75 5.355469 43.75 6.5625 C 43.75 7.769531 42.769531 8.75 41.5625 8.75 L 37.1875 8.75 Z M 35 30.625 C 38.625 30.625 41.5625 27.6875 41.5625 24.0625 C 41.5625 20.4375 38.625 17.5 35 17.5 C 31.375 17.5 28.4375 20.4375 28.4375 24.0625 C 28.4375 27.6875 31.375 30.625 35 30.625 Z M 17.5 30.625 C 21.125 30.625 24.0625 27.6875 24.0625 24.0625 C 24.0625 20.4375 21.125 17.5 17.5 17.5 C 13.875 17.5 10.9375 20.4375 10.9375 24.0625 C 10.9375 27.6875 13.875 30.625 17.5 30.625 Z M 26.25 45.9375 C 29.875 45.9375 32.8125 43 32.8125 39.375 C 32.8125 35.75 29.875 32.8125 26.25 32.8125 C 22.625 32.8125 19.6875 35.75 19.6875 39.375 C 19.6875 43 22.625 45.9375 26.25 45.9375 Z M 35 61.25 C 38.625 61.25 41.5625 58.3125 41.5625 54.6875 C 41.5625 51.0625 38.625 48.125 35 48.125 C 31.375 48.125 28.4375 51.0625 28.4375 54.6875 C 28.4375 58.3125 31.375 61.25 35 61.25 Z M 43.75 45.9375 C 47.375 45.9375 50.3125 43 50.3125 39.375 C 50.3125 35.75 47.375 32.8125 43.75 32.8125 C 40.125 32.8125 37.1875 35.75 37.1875 39.375 C 37.1875 43 40.125 45.9375 43.75 45.9375 Z M 52.5 30.625 C 56.125 30.625 59.0625 27.6875 59.0625 24.0625 C 59.0625 20.4375 56.125 17.5 52.5 17.5 C 48.875 17.5 45.9375 20.4375 45.9375 24.0625 C 45.9375 27.6875 48.875 30.625 52.5 30.625 Z M 52.5 30.625 "/>
</g>
</svg>
