<svg xmlns="http://www.w3.org/2000/svg" width="46" height="53" viewBox="0 0 46 53">
  <defs>
    <style>
      .cls-1 {
        fill-rule: evenodd;
      }
    </style>
  </defs>
  <path id="Icon" class="cls-1" d="M1454.56,1035.46a1.644,1.644,0,0,0-2.28.53,1.665,1.665,0,0,0,.53,2.29,6.171,6.171,0,0,1,0,10.44l-27.14,17a6.119,6.119,0,0,1-9.36-5.21v-34.02a6.119,6.119,0,0,1,9.36-5.21l15.8,9.9a1.664,1.664,0,0,0,1.75-2.83l-15.8-9.9a9.431,9.431,0,0,0-14.42,8.04v34.02a9.4,9.4,0,0,0,14.42,8.04l27.14-17.01A9.5,9.5,0,0,0,1454.56,1035.46Z" transform="translate(-1413 -1017)"/>
</svg>
